<svg width="13" height="17" viewBox="0 0 13 17" fill="none" xmlns="http://www.w3.org/2000/svg">
    <path d="M6.50024 0.678711C6.26976 0.678711 6.04872 0.77027 5.88574 0.933246C5.72277 1.09622 5.63121 1.31726 5.63121 1.54775V9.82879L1.96561 6.15885C1.88143 6.07456 1.78146 6.00768 1.67141 5.96206C1.56136 5.91643 1.4434 5.89295 1.32427 5.89295C1.20513 5.89295 1.08717 5.91643 0.977123 5.96206C0.867075 6.00768 0.7671 6.07456 0.682917 6.15885C0.512781 6.32928 0.417224 6.56025 0.417224 6.80107C0.417224 7.04188 0.512781 7.27286 0.682917 7.44329L5.81371 12.5793C6.00229 12.7679 6.25344 12.8565 6.50024 12.8443C6.74705 12.8565 6.9982 12.7679 7.18678 12.5793L12.3176 7.44329C12.4877 7.27286 12.5833 7.04188 12.5833 6.80107C12.5833 6.56025 12.4877 6.32928 12.3176 6.15885C12.2334 6.07456 12.1334 6.00768 12.0234 5.96206C11.9133 5.91643 11.7954 5.89295 11.6762 5.89295C11.5571 5.89295 11.4391 5.91643 11.3291 5.96206C11.219 6.00768 11.1191 6.07456 11.0349 6.15885L7.36928 9.82879V1.54775C7.36928 1.31726 7.27772 1.09622 7.11475 0.933246C6.95177 0.77027 6.73073 0.678711 6.50024 0.678711ZM0.416992 15.4523C0.416992 15.2218 0.508551 15.0008 0.671527 14.8378C0.834503 14.6748 1.05555 14.5833 1.28603 14.5833H11.7145C11.9449 14.5833 12.166 14.6748 12.329 14.8378C12.4919 15.0008 12.5835 15.2218 12.5835 15.4523C12.5835 15.6828 12.4919 15.9038 12.329 16.0668C12.166 16.2298 11.9449 16.3214 11.7145 16.3214H1.28603C1.05555 16.3214 0.834503 16.2298 0.671527 16.0668C0.508551 15.9038 0.416992 15.6828 0.416992 15.4523Z" fill="white"/>
</svg>
