<svg width="9" height="11" viewBox="0 0 9 11" fill="none" xmlns="http://www.w3.org/2000/svg">
    <path d="M8.27621 9.89681H0.553911C0.40762 9.89681 0.26732 9.95492 0.163876 10.0584C0.0604325 10.1618 0.00231832 10.3021 0.00231832 10.4484C0.00231832 10.5947 0.0604325 10.735 0.163876 10.8384C0.26732 10.9419 0.40762 11 0.553911 11H8.27621C8.4225 11 8.5628 10.9419 8.66625 10.8384C8.76969 10.735 8.8278 10.5947 8.8278 10.4484C8.8278 10.3021 8.76969 10.1618 8.66625 10.0584C8.5628 9.95492 8.4225 9.89681 8.27621 9.89681ZM0.553911 8.79362H0.603555L2.9037 8.58402C3.15566 8.55892 3.39132 8.4479 3.57112 8.26961L8.53546 3.30528C8.72814 3.10172 8.83227 2.83008 8.82503 2.54989C8.81779 2.2697 8.69978 2.0038 8.49685 1.81046L6.98548 0.299096C6.78823 0.113814 6.52975 0.00750141 6.25922 0.00038212C5.98868 -0.00673717 5.72497 0.0858334 5.51825 0.260485L0.553911 5.22482C0.375617 5.40462 0.264603 5.64028 0.239503 5.89225L0.00231832 8.19239C-0.00511221 8.27318 0.00537102 8.35462 0.0330206 8.43089C0.0606703 8.50716 0.104805 8.5764 0.16228 8.63366C0.213821 8.68478 0.274946 8.72523 0.342151 8.75268C0.409356 8.78013 0.481318 8.79404 0.553911 8.79362ZM6.21877 1.07133L7.72462 2.57717L6.62143 3.65278L5.14316 2.17451L6.21877 1.07133ZM1.30959 5.98602L4.41506 2.90261L5.90436 4.39191L2.81544 7.48083L1.16066 7.63528L1.30959 5.98602Z" fill="#43B989"/>
</svg>
