<svg width="15" height="15" viewBox="0 0 15 15" fill="none" xmlns="http://www.w3.org/2000/svg">
    <path fill-rule="evenodd" clip-rule="evenodd" d="M14.1667 1.66676H13.1917C13.0195 1.17881 12.7002 0.756284 12.2778 0.457414C11.8554 0.158543 11.3508 -0.00195312 10.8333 -0.00195312C10.3159 -0.00195312 9.81122 0.158543 9.38883 0.457414C8.96645 0.756284 8.64717 1.17881 8.475 1.66676H0.833333C0.61232 1.66676 0.400358 1.75455 0.244078 1.91083C0.0877973 2.06711 0 2.27908 0 2.50009C0 2.7211 0.0877973 2.93306 0.244078 3.08934C0.400358 3.24562 0.61232 3.33342 0.833333 3.33342H8.475C8.64717 3.82137 8.96645 4.24389 9.38883 4.54277C9.81122 4.84164 10.3159 5.00213 10.8333 5.00213C11.3508 5.00213 11.8554 4.84164 12.2778 4.54277C12.7002 4.24389 13.0195 3.82137 13.1917 3.33342H14.1667C14.3877 3.33342 14.5996 3.24562 14.7559 3.08934C14.9122 2.93306 15 2.7211 15 2.50009C15 2.27908 14.9122 2.06711 14.7559 1.91083C14.5996 1.75455 14.3877 1.66676 14.1667 1.66676ZM10.8333 3.33342C11.0543 3.33342 11.2663 3.24562 11.4226 3.08934C11.5789 2.93306 11.6667 2.7211 11.6667 2.50009C11.6667 2.27908 11.5789 2.06711 11.4226 1.91083C11.2663 1.75455 11.0543 1.66676 10.8333 1.66676C10.6123 1.66676 10.4004 1.75455 10.2441 1.91083C10.0878 2.06711 10 2.27908 10 2.50009C10 2.7211 10.0878 2.93306 10.2441 3.08934C10.4004 3.24562 10.6123 3.33342 10.8333 3.33342ZM0 7.50009C0 7.27908 0.0877973 7.06711 0.244078 6.91083C0.400358 6.75455 0.61232 6.66676 0.833333 6.66676H1.80833C1.9805 6.17881 2.29978 5.75628 2.72217 5.45741C3.14455 5.15854 3.64924 4.99805 4.16667 4.99805C4.68409 4.99805 5.18878 5.15854 5.61117 5.45741C6.03355 5.75628 6.35283 6.17881 6.525 6.66676H14.1667C14.3877 6.66676 14.5996 6.75455 14.7559 6.91083C14.9122 7.06711 15 7.27908 15 7.50009C15 7.7211 14.9122 7.93306 14.7559 8.08934C14.5996 8.24562 14.3877 8.33342 14.1667 8.33342H6.525C6.35283 8.82137 6.03355 9.24389 5.61117 9.54276C5.18878 9.84163 4.68409 10.0021 4.16667 10.0021C3.64924 10.0021 3.14455 9.84163 2.72217 9.54276C2.29978 9.24389 1.9805 8.82137 1.80833 8.33342H0.833333C0.61232 8.33342 0.400358 8.24562 0.244078 8.08934C0.0877973 7.93306 0 7.7211 0 7.50009ZM4.16667 8.33342C4.38768 8.33342 4.59964 8.24562 4.75592 8.08934C4.9122 7.93306 5 7.7211 5 7.50009C5 7.27908 4.9122 7.06711 4.75592 6.91083C4.59964 6.75455 4.38768 6.66676 4.16667 6.66676C3.94565 6.66676 3.73369 6.75455 3.57741 6.91083C3.42113 7.06711 3.33333 7.27908 3.33333 7.50009C3.33333 7.7211 3.42113 7.93306 3.57741 8.08934C3.73369 8.24562 3.94565 8.33342 4.16667 8.33342ZM0.833333 11.6668C0.61232 11.6668 0.400358 11.7546 0.244078 11.9108C0.0877973 12.0671 0 12.2791 0 12.5001C0 12.7211 0.0877973 12.9331 0.244078 13.0893C0.400358 13.2456 0.61232 13.3334 0.833333 13.3334H8.475C8.64717 13.8214 8.96645 14.2439 9.38883 14.5428C9.81122 14.8416 10.3159 15.0021 10.8333 15.0021C11.3508 15.0021 11.8554 14.8416 12.2778 14.5428C12.7002 14.2439 13.0195 13.8214 13.1917 13.3334H14.1667C14.3877 13.3334 14.5996 13.2456 14.7559 13.0893C14.9122 12.9331 15 12.7211 15 12.5001C15 12.2791 14.9122 12.0671 14.7559 11.9108C14.5996 11.7546 14.3877 11.6668 14.1667 11.6668H13.1917C13.0195 11.1788 12.7002 10.7563 12.2778 10.4574C11.8554 10.1585 11.3508 9.99805 10.8333 9.99805C10.3159 9.99805 9.81122 10.1585 9.38883 10.4574C8.96645 10.7563 8.64717 11.1788 8.475 11.6668H0.833333ZM11.6667 12.5001C11.6667 12.7211 11.5789 12.9331 11.4226 13.0893C11.2663 13.2456 11.0543 13.3334 10.8333 13.3334C10.6123 13.3334 10.4004 13.2456 10.2441 13.0893C10.0878 12.9331 10 12.7211 10 12.5001C10 12.2791 10.0878 12.0671 10.2441 11.9108C10.4004 11.7546 10.6123 11.6668 10.8333 11.6668C11.0543 11.6668 11.2663 11.7546 11.4226 11.9108C11.5789 12.0671 11.6667 12.2791 11.6667 12.5001Z" fill="#43B888"/>
</svg>
