<svg width="16" height="12" viewBox="0 0 16 12" fill="none" xmlns="http://www.w3.org/2000/svg">
    <path d="M1.06667 2.13333H14.9333C15.2162 2.13333 15.4875 2.02095 15.6876 1.82091C15.8876 1.62088 16 1.34956 16 1.06667C16 0.783769 15.8876 0.512458 15.6876 0.312419C15.4875 0.112381 15.2162 0 14.9333 0H1.06667C0.783769 0 0.512458 0.112381 0.312419 0.312419C0.112381 0.512458 0 0.783769 0 1.06667C0 1.34956 0.112381 1.62088 0.312419 1.82091C0.512458 2.02095 0.783769 2.13333 1.06667 2.13333ZM14.9333 4.8H1.06667C0.783769 4.8 0.512458 4.91238 0.312419 5.11242C0.112381 5.31246 0 5.58377 0 5.86667C0 6.14956 0.112381 6.42088 0.312419 6.62091C0.512458 6.82095 0.783769 6.93333 1.06667 6.93333H14.9333C15.2162 6.93333 15.4875 6.82095 15.6876 6.62091C15.8876 6.42088 16 6.14956 16 5.86667C16 5.58377 15.8876 5.31246 15.6876 5.11242C15.4875 4.91238 15.2162 4.8 14.9333 4.8ZM14.9333 9.6H1.06667C0.783769 9.6 0.512458 9.71238 0.312419 9.91242C0.112381 10.1125 0 10.3838 0 10.6667C0 10.9496 0.112381 11.2209 0.312419 11.4209C0.512458 11.621 0.783769 11.7333 1.06667 11.7333H14.9333C15.2162 11.7333 15.4875 11.621 15.6876 11.4209C15.8876 11.2209 16 10.9496 16 10.6667C16 10.3838 15.8876 10.1125 15.6876 9.91242C15.4875 9.71238 15.2162 9.6 14.9333 9.6Z" fill="white"/>
</svg>
