<svg width="24" height="21" viewBox="0 0 24 21" fill="none" xmlns="http://www.w3.org/2000/svg">
    <path d="M11.7053 20.9314C11.811 20.9657 11.9167 21 12.0224 21C12.1281 21 12.2338 20.9657 12.3395 20.9314C21.677 17.2255 24.8129 10.5686 23.8263 5.59314C23.1569 2.23039 20.6904 0.0686277 17.5544 0.0686277C15.7926 0.0686277 13.8899 0.754902 12.0224 2.09314C10.1549 0.720588 8.21698 0 6.45521 0C3.31924 0 0.852755 2.19608 0.18328 5.55882C-0.838551 10.6029 2.33265 17.2941 11.7053 20.9314ZM1.80412 5.90196C2.29741 3.32843 4.12966 1.68137 6.41997 1.68137C7.97034 1.68137 9.73211 2.40196 11.4587 3.80882C11.7758 4.04902 12.1986 4.04902 12.5157 3.80882C14.2423 2.43627 15.9688 1.75 17.5192 1.75C19.8095 1.75 21.6417 3.39706 22.135 5.93628C22.9807 10.1912 20.1618 15.9559 11.9872 19.3186C3.81254 15.9559 0.958462 10.1912 1.80412 5.90196Z" fill="white"/>
</svg>
