<svg width="22" height="22" viewBox="0 0 22 22" fill="none" xmlns="http://www.w3.org/2000/svg">
    <path fill-rule="evenodd" clip-rule="evenodd" d="M9.7822 0.610235C10.0673 0.30785 10.4573 0.134611 10.8662 0.128593C11.0725 0.125437 11.2773 0.164979 11.4685 0.244877C11.6597 0.324775 11.8334 0.443402 11.9794 0.593749C12.1253 0.744096 12.2406 0.923109 12.3183 1.12019C12.396 1.31727 12.4345 1.52841 12.4317 1.74113V9.40823H19.8655C20.0716 9.40239 20.2768 9.4392 20.4688 9.51649C20.6609 9.59378 20.836 9.70998 20.9837 9.85823C21.1315 10.0065 21.249 10.1838 21.3292 10.3796C21.4094 10.5755 21.4507 10.7859 21.4507 10.9985C21.4507 11.2111 21.4094 11.4216 21.3292 11.6174C21.249 11.8133 21.1315 11.9906 20.9837 12.1388C20.836 12.2871 20.6609 12.4033 20.4688 12.4806C20.2768 12.5579 20.0716 12.5947 19.8655 12.5888H12.4317V20.2547C12.4357 20.4663 12.3987 20.6766 12.323 20.8732C12.2472 21.0699 12.1342 21.249 11.9905 21.4C11.8468 21.5511 11.6754 21.6711 11.4862 21.753C11.297 21.835 11.0939 21.8772 10.8887 21.8772C10.6835 21.8772 10.4803 21.835 10.2911 21.753C10.102 21.6711 9.9305 21.5511 9.78682 21.4C9.64314 21.249 9.53012 21.0699 9.45437 20.8732C9.37862 20.6766 9.34165 20.4663 9.34564 20.2547V12.5888H1.91181C1.70572 12.5947 1.50059 12.5579 1.30853 12.4806C1.11647 12.4033 0.941387 12.2871 0.793616 12.1388C0.645845 11.9906 0.528389 11.8133 0.448185 11.6174C0.367982 11.4216 0.32666 11.2111 0.32666 10.9985C0.32666 10.7859 0.367982 10.5755 0.448185 10.3796C0.528389 10.1838 0.645845 10.0065 0.793616 9.85823C0.941387 9.70998 1.11647 9.59378 1.30853 9.51649C1.50059 9.4392 1.70572 9.40239 1.91181 9.40823H9.34564V1.74113C9.34003 1.31939 9.49706 0.91262 9.7822 0.610235Z" fill="white"/>
</svg>
