<svg width="13" height="13" viewBox="0 0 13 13" fill="none" xmlns="http://www.w3.org/2000/svg">
    <path fill-rule="evenodd" clip-rule="evenodd" d="M11.5635 2.25371C11.5636 2.25364 11.5636 2.25355 11.5637 2.25346C11.7195 1.80057 11.2853 1.36672 10.8324 1.52243L1.96325 4.57588C1.48918 4.73916 1.43633 5.38837 1.87784 5.62627L5.20241 7.41646C5.40058 7.52318 5.56308 7.68569 5.6698 7.88385L7.45999 11.2082C7.69768 11.6497 8.34689 11.5969 8.51016 11.1228L11.5634 2.25396C11.5634 2.25387 11.5634 2.25378 11.5635 2.25371ZM10.645 0.978796C10.6452 0.978865 10.6453 0.978874 10.6455 0.978824C11.5515 0.666955 12.4192 1.5348 12.1074 2.44082L9.0539 11.31C8.72757 12.2582 7.42893 12.3638 6.95356 11.481L5.16337 8.15647C5.11001 8.05733 5.02872 7.97603 4.92957 7.92267L1.605 6.13248C0.722201 5.65711 0.827887 4.35847 1.77604 4.03214L10.6446 0.978767C10.6447 0.978716 10.6449 0.978727 10.645 0.978796Z" fill="#43B888" stroke="#43B888" stroke-width="0.5"/>
    <path fill-rule="evenodd" clip-rule="evenodd" d="M8.54745 4.53822C8.6596 4.65059 8.6596 4.83263 8.54745 4.945L6.92053 6.57191C6.86659 6.62583 6.79344 6.65611 6.71717 6.65609C6.64091 6.65607 6.56777 6.62575 6.51386 6.57181C6.45994 6.51786 6.42967 6.44471 6.42969 6.36845C6.42971 6.29218 6.46002 6.21905 6.51397 6.16513L8.14066 4.53822C8.25304 4.42606 8.43507 4.42606 8.54745 4.53822Z" fill="#43B888" stroke="#43B888" stroke-width="0.5"/>
</svg>
